# Blender v2.74 (sub 0) OBJ File: 'farenstol.blend'
# www.blender.org
mtllib farenstol.mtl
o Arrow_ArrrowMesh
v -0.180000 0.023592 0.800000
v -0.180000 0.316517 0.800000
v -0.180000 0.023592 -0.200000
v -0.180000 0.316517 -0.200000
v 0.180000 0.023592 0.800000
v 0.180000 0.316517 0.800000
v 0.180000 0.023592 -0.200000
v 0.180000 0.316517 -0.200000
v -0.400000 0.023592 -0.200000
v -0.400000 0.316517 -0.200000
v 0.400000 0.023592 -0.200000
v 0.400000 0.316517 -0.200000
v 0.180000 0.023592 0.800000
v 0.180000 0.316517 0.800000
v 0.180000 0.023592 -0.200000
v 0.180000 0.316517 -0.200000
v -0.180000 0.023592 0.800000
v -0.180000 0.316517 0.800000
v -0.180000 0.023592 -0.200000
v -0.180000 0.316517 -0.200000
v 0.400000 0.023592 -0.200000
v 0.400000 0.316517 -0.200000
v -0.400000 0.023592 -0.200000
v -0.400000 0.316517 -0.200000
v 0.000000 0.023592 -0.800000
v 0.000000 0.316517 -0.800000
vn -1.000000 0.000000 0.000000
vn 0.000000 0.000000 1.000000
vn 1.000000 0.000000 0.000000
vn 0.000000 -1.000000 0.000000
vn 0.000000 1.000000 0.000000
vn 0.832100 0.000000 -0.554700
vn -0.832100 0.000000 -0.554700
vn 0.000000 0.000000 -1.000000
usemtl White
s off
f 2//1 4//1 3//1 1//1
f 7//2 3//2 9//2 11//2
f 8//3 6//3 5//3 7//3
f 6//2 2//2 1//2 5//2
f 1//4 3//4 7//4 5//4
f 6//5 8//5 4//5 2//5
f 8//2 7//2 11//2 12//2
f 4//2 8//2 12//2 10//2
f 3//2 4//2 10//2 9//2
f 12//6 11//6 25//6 26//6
f 11//4 9//4 25//4
f 9//7 10//7 26//7 25//7
f 10//5 12//5 26//5
f 14//3 13//3 15//3 16//3
f 19//8 23//8 21//8 15//8
f 20//1 19//1 17//1 18//1
f 18//2 17//2 13//2 14//2
f 13//4 17//4 19//4 15//4
f 18//5 14//5 16//5 20//5
f 20//2 24//2 23//2 19//2
f 16//8 22//8 24//8 20//8
f 15//2 21//2 22//2 16//2
f 24//7 26//7 25//7 23//7
f 23//4 25//4 21//4
f 21//6 25//6 26//6 22//6
f 22//5 26//5 24//5
